<?xml version="1.0" encoding="utf-8"?>
<!-- Generator: Adobe Illustrator 15.0.0, SVG Export Plug-In . SVG Version: 6.00 Build 0)  -->
<!DOCTYPE svg PUBLIC "-//W3C//DTD SVG 1.1//EN" "http://www.w3.org/Graphics/SVG/1.1/DTD/svg11.dtd">
<svg version="1.1" id="Layer_1" xmlns="http://www.w3.org/2000/svg" xmlns:xlink="http://www.w3.org/1999/xlink" x="0px" y="0px"
	 width="208px" height="64px" viewBox="0 0 208 64" enable-background="new 0 0 208 64" xml:space="preserve">
<path fill="#FFFFFF" d="M51.199,64.05c-5.199,0-13-4.2-13-13.2V26.45c0-7.4,6.2-13.7,13.601-13.7c3,0,4.8,1.6,4.8,1.6l0.8,0.801
	V0.05h8.8v63.4h-7l-0.699-2.5l-0.601,0.6C57.899,61.55,55.199,64.05,51.199,64.05 M52.3,20.95c-2.8,0-5.3,2.399-5.3,5.2v24.5
	c0,2.8,2.6,5.199,4.8,5.199c3,0,5.6-2.399,5.6-5.199v-24.4C57.399,23.45,55,20.95,52.3,20.95"/>
<path fill="#FFFFFF" d="M126.5,64.05c-7.7,0-14-6.1-14-13.5v-16.5h19.399v-8c0-2.7-2.5-5-5.399-5c-2.7,0-5.101,2.3-5.101,5v2.3h-8.8
	v-2.3c0-7.399,6.3-13.399,14-13.399c7.6,0,14,6.199,14,13.399v16.5h-19.3v8c0,2.8,2.399,5.2,5.2,5.2c2.899,0,5.399-2.4,5.399-5.2
	v-1.8h8.3v1.8C140.199,57.95,134,64.05,126.5,64.05 M199.399,63.45l-7.1-30.7h-5.101v30.7h-8.8v-63.5h8.8v23.8h5.101l5.8-9.9h9.1
	l-7.199,14l8.5,35.7h-9.101V63.45z M149.399,63.45v-37.3c0-7.5,6.101-13.5,13.5-13.5h7.5v8.8h-7.5c-2.6,0-4.7,2.1-4.7,4.7v37.3
	H149.399z M76.1,63.45v-8.8L94.3,21.85H76.1V13.65h27.7v8.899l-18.101,32.7H103.8v8.2H76.1L76.1,63.45z"/>
<path fill="#FFFFFF" d="M20.1,63.35V42.65h-10.4V63.35h-8.8V25.95c0-7.4,6.3-13.4,14-13.4c7.601,0,14,6.2,14,13.4V63.35H20.1z
	 M14.8,20.95c-2.7,0-5.101,2.3-5.101,5v7.8h10.4v-7.8C20.1,23.25,17.699,20.95,14.8,20.95"/>
</svg>
