<?xml version="1.0" encoding="utf-8"?>
<!-- Generator: Adobe Illustrator 15.0.0, SVG Export Plug-In  -->
<!DOCTYPE svg [
	<!ENTITY ns_flows "http://ns.adobe.com/Flows/1.0/">
]>
<svg version="1.2" baseProfile="tiny"
	 xmlns="http://www.w3.org/2000/svg" xmlns:xlink="http://www.w3.org/1999/xlink" xmlns:a="http://ns.adobe.com/AdobeSVGViewerExtensions/3.0/"
	 x="0px" y="0px" width="208px" height="64px" viewBox="-0.9 0.05 208 64" overflow="visible" xml:space="preserve">
<defs>
</defs>
<path fill="#092937" d="M50.299,64.1c-5.199,0-13-4.2-13-13.2V26.5c0-7.4,6.2-13.7,13.601-13.7c3,0,4.8,1.6,4.8,1.6l0.8,0.801V0.1
	h8.8v63.4h-7L57.601,61L57,61.6C56.999,61.6,54.299,64.1,50.299,64.1 M51.4,21c-2.8,0-5.3,2.399-5.3,5.2v24.5
	c0,2.8,2.6,5.199,4.8,5.199c3,0,5.6-2.399,5.6-5.199V26.3C56.499,23.5,54.1,21,51.4,21"/>
<path fill="#092937" d="M125.6,64.1c-7.7,0-14-6.1-14-13.5V34.1h19.398v-8c0-2.7-2.5-5-5.398-5c-2.7,0-5.102,2.3-5.102,5v2.3H111.7
	v-2.3c0-7.399,6.299-13.399,14-13.399c7.6,0,14,6.199,14,13.399v16.5h-19.301v8c0,2.8,2.399,5.2,5.2,5.2
	c2.899,0,5.399-2.4,5.399-5.2v-1.8h8.3v1.8C139.299,58,133.1,64.1,125.6,64.1 M198.499,63.5l-7.1-30.7h-5.101v30.7h-8.8V0h8.8v23.8
	h5.101l5.801-9.9h9.1l-7.199,14l8.5,35.7h-9.102V63.5z M148.499,63.5V26.2c0-7.5,6.102-13.5,13.5-13.5h7.5v8.8h-7.5
	c-2.6,0-4.699,2.1-4.699,4.7v37.3H148.499z M75.2,63.5v-8.8l18.2-32.8H75.2v-8.2h27.7v8.899l-18.101,32.7H102.9v8.2L75.2,63.5
	L75.2,63.5z"/>
<path fill="#092937" d="M19.2,63.399V42.7H8.8v20.699H0V26c0-7.4,6.3-13.4,14-13.4c7.601,0,14,6.2,14,13.4v37.399H19.2z M13.9,21
	c-2.7,0-5.101,2.3-5.101,5v7.8h10.4V26C19.2,23.3,16.799,21,13.9,21"/>
</svg>
