<?xml version="1.0" encoding="utf-8"?>
<!-- Generator: Adobe Illustrator 15.0.0, SVG Export Plug-In  -->
<!DOCTYPE svg [
	<!ENTITY ns_flows "http://ns.adobe.com/Flows/1.0/">
]>
<svg version="1.2" baseProfile="tiny"
	 xmlns="http://www.w3.org/2000/svg" xmlns:xlink="http://www.w3.org/1999/xlink" xmlns:a="http://ns.adobe.com/AdobeSVGViewerExtensions/3.0/"
	 x="0px" y="0px" width="30px" height="30px" viewBox="0.057 -1.944 30 30" overflow="visible" xml:space="preserve">
<defs>
</defs>
<path fill="#E25626" d="M30.041,2.835c-1.106,0.501-2.298,0.843-3.549,1.001c1.272-0.775,2.245-1.996,2.697-3.445
	c-1.191,0.718-2.513,1.243-3.921,1.531C24.13,0.727,22.516-0.013,20.735,0c-3.419,0.025-6.171,2.817-6.146,6.237
	c0.003,0.485,0.062,0.957,0.171,1.409C9.611,7.426,5.031,4.994,1.95,1.271C1.424,2.188,1.126,3.254,1.135,4.389
	c0.016,2.148,1.123,4.036,2.792,5.133c-1.015-0.024-1.972-0.296-2.81-0.753c0,0.026,0,0.051,0,0.078
	c0.022,2.999,2.174,5.486,5.011,6.034c-0.519,0.146-1.064,0.225-1.629,0.229c-0.399,0.003-0.787-0.032-1.166-0.103
	c0.806,2.454,3.105,4.228,5.815,4.258c-2.107,1.676-4.769,2.686-7.67,2.707C0.978,21.975,0.484,21.95,0,21.895
	c2.752,1.737,6.015,2.739,9.511,2.713c11.388-0.083,17.547-9.562,17.488-17.744c-0.003-0.269-0.01-0.535-0.024-0.801
	C28.178,5.182,29.219,4.083,30.041,2.835z"/>
</svg>
